<svg width="14" height="18" viewBox="0 0 14 18" fill="none" xmlns="http://www.w3.org/2000/svg">
<path d="M14 6.3C14 5.47267 13.8189 4.65345 13.4672 3.88909C13.1154 3.12474 12.5998 2.43024 11.9497 1.84523C11.2997 1.26022 10.5281 0.796164 9.67878 0.479559C8.8295 0.162954 7.91925 0 7 0C6.08075 0 5.17049 0.162954 4.32122 0.479559C3.47194 0.796164 2.70026 1.26022 2.05025 1.84523C1.40024 2.43024 0.884626 3.12474 0.532843 3.88909C0.18106 4.65345 -1.36979e-08 5.47267 0 6.3C0 7.5483 0.41 8.7093 1.105 9.6885H1.097C3.457 13.014 7 18 7 18L12.903 9.6885H12.896C13.6164 8.67723 13.9995 7.50127 14 6.3ZM7 9C6.20435 9 5.44129 8.71554 4.87868 8.20919C4.31607 7.70284 4 7.01608 4 6.3C4 5.58392 4.31607 4.89716 4.87868 4.39081C5.44129 3.88446 6.20435 3.6 7 3.6C7.79565 3.6 8.55871 3.88446 9.12132 4.39081C9.68393 4.89716 10 5.58392 10 6.3C10 7.01608 9.68393 7.70284 9.12132 8.20919C8.55871 8.71554 7.79565 9 7 9Z" fill="#A4A4A4"/>
</svg>
