<svg width="45" height="52" viewBox="0 0 45 52" fill="none" xmlns="http://www.w3.org/2000/svg">
<path d="M38.4375 22.2226C41.4093 16.7034 40.3266 6.92032 38.4375 2.38632C37.729 0.686058 39.7602 0.11928 40.7046 1.25282C43.5379 4.65333 44.4694 9.1873 44.6719 12.0211C45.0362 17.1218 45.2381 20.5223 39.5706 30.157C31.4094 41.9454 17.09 42.6255 11.2336 41.4921C8.96663 41.0387 9.15554 42.4366 9.53338 43.1923L12.9339 49.4265C13.3874 51.6935 11.6115 51.5046 10.6669 51.1268L1.5989 40.9253C-1.23515 37.5248 0.464907 36.3913 2.16565 35.2578L13.5006 28.4568C15.2004 27.3233 16.3339 29.0236 15.7671 29.5903L13.5006 31.8573C11.7999 33.5576 11.2332 35.1515 12.367 35.2578C26.8758 36.618 35.7926 27.1344 38.4375 22.2226Z" fill="#B5121A"/>
</svg>
