<svg width="48" height="48" viewBox="0 0 48 48" fill="none" xmlns="http://www.w3.org/2000/svg">
<rect x="0.5" y="0.5" width="47" height="47" rx="11.5" stroke="#6A7076"/>
<path d="M23.5 26C23.5 25.7239 23.7239 25.5 24 25.5H33C33.2761 25.5 33.5 25.7239 33.5 26V33.5H23.5V26Z" fill="#F8F9FB" stroke="#6A7076"/>
<path d="M14.5 15C14.5 14.7239 14.7239 14.5 15 14.5H24C24.2761 14.5 24.5 14.7239 24.5 15V33.5H14.5V15Z" fill="#F8F9FB" stroke="#6A7076"/>
<rect x="16" y="17" width="1" height="1" fill="#6A7076"/>
<rect x="18" y="17" width="1" height="1" fill="#6A7076"/>
<rect x="20" y="17" width="1" height="1" fill="#6A7076"/>
<rect x="22" y="17" width="1" height="1" fill="#6A7076"/>
<rect x="16" y="19" width="1" height="1" fill="#6A7076"/>
<rect x="18" y="19" width="1" height="1" fill="#6A7076"/>
<rect x="20" y="19" width="1" height="1" fill="#6A7076"/>
<rect x="22" y="19" width="1" height="1" fill="#6A7076"/>
<rect x="16" y="21" width="1" height="1" fill="#6A7076"/>
<rect x="18" y="21" width="1" height="1" fill="#6A7076"/>
<rect x="20" y="21" width="1" height="1" fill="#6A7076"/>
<rect x="22" y="21" width="1" height="1" fill="#6A7076"/>
<rect x="16" y="23" width="1" height="1" fill="#6A7076"/>
<rect x="18" y="23" width="1" height="1" fill="#6A7076"/>
<rect x="20" y="23" width="1" height="1" fill="#6A7076"/>
<rect x="22" y="23" width="1" height="1" fill="#6A7076"/>
<rect x="25" y="27" width="1" height="1" fill="#6A7076"/>
<rect x="27" y="27" width="1" height="1" fill="#6A7076"/>
<rect x="29" y="27" width="1" height="1" fill="#6A7076"/>
<rect x="31" y="27" width="1" height="1" fill="#6A7076"/>
<rect x="25" y="29" width="1" height="1" fill="#6A7076"/>
<rect x="27" y="29" width="1" height="1" fill="#6A7076"/>
<rect x="29" y="29" width="1" height="1" fill="#6A7076"/>
<rect x="31" y="29" width="1" height="1" fill="#6A7076"/>
</svg>
