<svg width="20" height="18" viewBox="0 0 20 18" fill="none" xmlns="http://www.w3.org/2000/svg">
<path d="M9.04894 0.727833C9.3483 -0.193478 10.6517 -0.193479 10.9511 0.727832L12.4697 5.40159C12.6035 5.81362 12.9875 6.09258 13.4207 6.09258H18.335C19.3037 6.09258 19.7065 7.33219 18.9228 7.90159L14.947 10.7901C14.5966 11.0448 14.4499 11.4961 14.5838 11.9082L16.1024 16.5819C16.4017 17.5032 15.3472 18.2694 14.5635 17.7L10.5878 14.8114C10.2373 14.5568 9.7627 14.5568 9.41221 14.8114L5.43648 17.7C4.65276 18.2694 3.59828 17.5032 3.89763 16.5819L5.41623 11.9082C5.55011 11.4962 5.40345 11.0448 5.05296 10.7901L1.07722 7.90159C0.293507 7.33219 0.696283 6.09258 1.66501 6.09258H6.57929C7.01252 6.09258 7.39647 5.81362 7.53035 5.40159L9.04894 0.727833Z" fill="#FFBB00"/>
</svg>
