<svg width="48" height="48" viewBox="0 0 48 48" fill="none" xmlns="http://www.w3.org/2000/svg">
<rect x="0.5" y="0.5" width="47" height="47" rx="11.5" stroke="#6A7076"/>
<path fill-rule="evenodd" clip-rule="evenodd" d="M23 17C20.2386 17 18 19.2386 18 22V23V30H15C13.8954 30 13 29.1046 13 28V24C13 22.8954 13.8954 22 15 22L16 22C16 18.134 19.134 15 23 15H25C28.866 15 32 18.134 32 22H33C34.1046 22 35 22.8954 35 24V28C35 29.1046 34.1046 30 33 30H31.874C31.4299 31.7252 29.8638 33 28 33H26.7324C26.3866 33.5978 25.7403 34 25 34C23.8954 34 23 33.1046 23 32C23 30.8954 23.8954 30 25 30C25.7403 30 26.3866 30.4022 26.7324 31H28C29.1046 31 30 30.1046 30 29V23V22C30 19.2386 27.7614 17 25 17H23ZM16 24H15L15 28H16V24ZM23 24.25C23 24.9404 22.4404 25.5 21.75 25.5C21.0596 25.5 20.5 24.9404 20.5 24.25C20.5 23.5596 21.0596 23 21.75 23C22.4404 23 23 23.5596 23 24.25ZM26.25 25.5C26.9404 25.5 27.5 24.9404 27.5 24.25C27.5 23.5596 26.9404 23 26.25 23C25.5596 23 25 23.5596 25 24.25C25 24.9404 25.5596 25.5 26.25 25.5ZM32 24H33V28H32V24Z" fill="#6A7076"/>
</svg>
