<?xml version="1.0" standalone="no"?>
<!DOCTYPE svg PUBLIC "-//W3C//DTD SVG 20010904//EN"
 "http://www.w3.org/TR/2001/REC-SVG-20010904/DTD/svg10.dtd">
<svg version="1.0" xmlns="http://www.w3.org/2000/svg"
 width="520.000000pt" height="520.000000pt" viewBox="0 0 520.000000 520.000000"
 preserveAspectRatio="xMidYMid meet">
<metadata>
Created by potrace 1.11, written by Peter Selinger 2001-2013
</metadata>
<g transform="translate(0.000000,520.000000) scale(0.100000,-0.100000)"
fill="#000000" stroke="none">
<path d="M2630 4353 c-622 -43 -1081 -282 -1366 -709 -190 -285 -284 -699
-255 -1114 34 -461 166 -775 446 -1056 256 -257 551 -398 965 -460 140 -22
532 -25 685 -6 335 42 591 110 872 229 l133 57 0 783 0 783 -650 0 -650 0 0
-280 0 -280 255 0 255 0 -2 -317 -3 -318 -40 -13 c-107 -36 -191 -46 -395 -46
-177 0 -217 3 -291 21 -190 48 -321 117 -434 229 -123 121 -205 275 -251 473
-34 144 -44 425 -20 581 68 444 312 717 725 811 113 26 352 35 496 20 242 -26
475 -96 724 -216 84 -41 155 -75 157 -75 2 0 4 150 4 334 l0 334 -77 32 c-372
155 -863 233 -1283 203z"/>
</g>
</svg>
